<svg xmlns="http://www.w3.org/2000/svg" width="420" height="180" viewBox="0 0 420 180" role="img" aria-labelledby="title desc">
  <title id="title">Languages across selected projects</title>
  <desc id="desc">TypeScript 78 percent, JavaScript 9.3 percent, CSS 6.6 percent, HTML 5.5 percent, and other languages 0.6 percent.</desc>
  <defs>
    <linearGradient id="bg" x1="0" y1="0" x2="1" y2="1">
      <stop offset="0" stop-color="#0d1117"/>
      <stop offset="1" stop-color="#161b22"/>
    </linearGradient>
    <clipPath id="bar"><rect x="28" y="68" width="364" height="12" rx="6"/></clipPath>
  </defs>
  <rect x="1" y="1" width="418" height="178" rx="12" fill="url(#bg)" stroke="#30363d"/>
  <text x="28" y="40" fill="#f0f6fc" font-family="-apple-system,BlinkMacSystemFont,Segoe UI,sans-serif" font-size="20" font-weight="700">Languages in selected projects</text>
  <g clip-path="url(#bar)">
    <rect x="28" y="68" width="284" height="12" fill="#3178c6"/>
    <rect x="312" y="68" width="34" height="12" fill="#f1e05a"/>
    <rect x="346" y="68" width="24" height="12" fill="#663399"/>
    <rect x="370" y="68" width="20" height="12" fill="#e34c26"/>
    <rect x="390" y="68" width="2" height="12" fill="#8b949e"/>
  </g>
  <circle cx="31" cy="109" r="5" fill="#3178c6"/><text x="43" y="114" fill="#c9d1d9" font-family="-apple-system,BlinkMacSystemFont,Segoe UI,sans-serif" font-size="13">TypeScript 78%</text>
  <circle cx="166" cy="109" r="5" fill="#f1e05a"/><text x="178" y="114" fill="#c9d1d9" font-family="-apple-system,BlinkMacSystemFont,Segoe UI,sans-serif" font-size="13">JavaScript 9.3%</text>
  <circle cx="31" cy="143" r="5" fill="#663399"/><text x="43" y="148" fill="#c9d1d9" font-family="-apple-system,BlinkMacSystemFont,Segoe UI,sans-serif" font-size="13">CSS 6.6%</text>
  <circle cx="166" cy="143" r="5" fill="#e34c26"/><text x="178" y="148" fill="#c9d1d9" font-family="-apple-system,BlinkMacSystemFont,Segoe UI,sans-serif" font-size="13">HTML 5.5%</text>
  <circle cx="282" cy="143" r="5" fill="#8b949e"/><text x="294" y="148" fill="#c9d1d9" font-family="-apple-system,BlinkMacSystemFont,Segoe UI,sans-serif" font-size="13">Other 0.6%</text>
</svg>
