<svg xmlns="http://www.w3.org/2000/svg" width="420" height="180" viewBox="0 0 420 180" role="img" aria-labelledby="title desc">
  <title id="title">Languages across all projects</title>
  <desc id="desc">TypeScript 34.2 percent, C++ 20.6 percent, Python 11.5 percent, CSS 10.5 percent, HTML 9.1 percent, JavaScript 8.3 percent, and other languages 5.8 percent.</desc>
  <defs>
    <linearGradient id="bg" x1="0" y1="0" x2="1" y2="1">
      <stop offset="0" stop-color="#0d1117"/>
      <stop offset="1" stop-color="#161b22"/>
    </linearGradient>
    <clipPath id="bar"><rect x="28" y="68" width="364" height="12" rx="6"/></clipPath>
  </defs>
  <rect x="1" y="1" width="418" height="178" rx="12" fill="url(#bg)" stroke="#30363d"/>
  <text x="28" y="40" fill="#f0f6fc" font-family="-apple-system,BlinkMacSystemFont,Segoe UI,sans-serif" font-size="20" font-weight="700">Languages across all projects</text>
  <g clip-path="url(#bar)">
    <rect x="28" y="68" width="125" height="12" fill="#3178c6"/>
    <rect x="153" y="68" width="75" height="12" fill="#f34b7d"/>
    <rect x="228" y="68" width="42" height="12" fill="#3572A5"/>
    <rect x="270" y="68" width="38" height="12" fill="#663399"/>
    <rect x="308" y="68" width="33" height="12" fill="#e34c26"/>
    <rect x="341" y="68" width="30" height="12" fill="#f1e05a"/>
    <rect x="371" y="68" width="21" height="12" fill="#8b949e"/>
  </g>
  <circle cx="31" cy="105" r="5" fill="#3178c6"/><text x="43" y="110" fill="#c9d1d9" font-family="-apple-system,BlinkMacSystemFont,Segoe UI,sans-serif" font-size="12">TypeScript 34.2%</text>
  <circle cx="166" cy="105" r="5" fill="#f34b7d"/><text x="178" y="110" fill="#c9d1d9" font-family="-apple-system,BlinkMacSystemFont,Segoe UI,sans-serif" font-size="12">C++ 20.6%</text>
  <circle cx="282" cy="105" r="5" fill="#3572A5"/><text x="294" y="110" fill="#c9d1d9" font-family="-apple-system,BlinkMacSystemFont,Segoe UI,sans-serif" font-size="12">Python 11.5%</text>
  <circle cx="31" cy="131" r="5" fill="#663399"/><text x="43" y="136" fill="#c9d1d9" font-family="-apple-system,BlinkMacSystemFont,Segoe UI,sans-serif" font-size="12">CSS 10.5%</text>
  <circle cx="166" cy="131" r="5" fill="#e34c26"/><text x="178" y="136" fill="#c9d1d9" font-family="-apple-system,BlinkMacSystemFont,Segoe UI,sans-serif" font-size="12">HTML 9.1%</text>
  <circle cx="282" cy="131" r="5" fill="#f1e05a"/><text x="294" y="136" fill="#c9d1d9" font-family="-apple-system,BlinkMacSystemFont,Segoe UI,sans-serif" font-size="12">JavaScript 8.3%</text>
  <circle cx="31" cy="157" r="5" fill="#8b949e"/><text x="43" y="162" fill="#c9d1d9" font-family="-apple-system,BlinkMacSystemFont,Segoe UI,sans-serif" font-size="12">Other 5.8%</text>
</svg>
